<svg xmlns="http://www.w3.org/2000/svg" xmlns:xlink="http://www.w3.org/1999/xlink" width="1100" height="1185" viewbox="-50 0 1050 1200">
	<defs>

		<path id="b1" stroke="black" stroke-width="3" d="
			M 0 685.9   
			L 0 485     
			A 200.9 200.9 0 0 1 58.8 343
			A 200.9 200.9 0 0 1 117.7 485
			L 117.7 568.2     
			L 200.9 568.2     
			A 83.2 83.2 0 0 0 200.9 401.8
			A 200.9 200.9 0 0 1 58.8 343
			A 200.9 200.9 0 0 1 200.9 284.1
			A 83.2 83.2 0 0 0 200.9 117.7
			L 117.7 117.7     
			L 117.7 200.9     
			A 200.9 200.9 0 0 1 58.8 343
			A 200.9 200.9 0 0 1 0 200.9
			L 0 0
			L 200.9 0     
			A 200.9 200.9 0 0 1 342.9 343
			A 200.9 200.9 0 0 1 200.9 685.9
		"/>

		<path id="t1" x="299.1" y="14.1" fill="white" stroke="" stroke-width="3" d="
			M 0 200.9
			A 200.9 200.9 0 0 1 343 58.8
			A 200.9 200.9 0 0 1 685.9 200.9
			A 200.9 200.9 0 0 1 543.8 142.1
			A 83.2 83.2 0 0 0 401.8 200.9
			A 83.2 83.2 0 0 0 485 284.1
			A 200.9 200.9 0 0 1 627.1 343
			A 200.9 200.9 0 0 1 485 401.8
			A 83.2 83.2 0 0 0 401.8 485
			A 83.2 83.2 0 0 0 543.8 543.8
			A 200.9 200.9 0 0 1 685.9 485
			A 200.9 200.9 0 0 1 343 627.1
			A 200.9 200.9 0 0 1 0 485
			A 200.9 200.9 0 0 1 142.1 543.8
			A 83.2 83.2 0 0 0 284.1 485
			A 83.2 83.2 0 0 0 200.9 401.8
			A 200.9 200.9 0 0 1 58.8 343
			A 200.9 200.9 0 0 1 200.9 284.1
			A 83.2 83.2 0 0 0 284.1 200.9
			A 83.2 83.2 0 0 0 142.1 142.1
			A 200.9 200.9 0 0 1 0 200.9
		"/>

		<g id="trigger">
			<use xlink:href="#b1" x="15" y="14.1" opacity="0"/>
			<use xlink:href="#t1" x="299.1" y="14.1" opacity="0"/>
		</g>

		<use xlink:href="#t1" x="299.1" y="14.1" id="t" />

	</defs>
</svg>
